<svg width="1161" height="310" viewBox="0 0 1161 310" fill="none" xmlns="http://www.w3.org/2000/svg">
<path fill-rule="evenodd" clip-rule="evenodd" d="M268.177 283.511C249.985 285.353 210.79 284.57 199.551 266.7C185.504 244.362 188.531 232.031 190.488 232.031C190.488 235.064 192.804 236.001 196.03 236.001C199.256 236.001 204.053 232.141 204.053 224.008C204.053 215.874 184.002 210.285 184.002 244.691C184.002 251.207 183.128 256.054 181.697 257.802C180.267 259.55 179.632 260.662 179.949 260.98C180.267 261.298 179.837 260.068 182.777 260.068C182.853 260.068 183.526 260.069 184.026 260.069L183.994 271.983L186.924 272.015V274.043L178.037 283.027L158.148 248.785C159.498 247.207 160.764 244.051 155.034 244.051C150.05 244.051 154.971 246.854 154.971 249.844L152.916 263.984H147.87L162.945 278.997C163.432 279.339 164.165 280.267 163.194 281.239C161.979 282.454 148.804 273.889 132.795 273.889C116.787 273.889 114.606 270.027 113.423 270.027C112.239 270.027 107.879 272.518 107.879 273.453C107.879 274.387 110.184 274.885 113.049 277.751C115.341 280.043 115.956 283.44 115.977 284.852C118.261 284.894 123.053 284.977 123.95 284.977C125.071 284.977 124.995 285.002 124.995 285.988C124.995 286.974 125.007 286.226 125.007 287.105C125.007 287.984 124.983 287.996 125.981 287.996C126.979 287.996 129.011 288.008 130.009 288.008C130.995 288.008 130.995 288.02 130.995 288.972L130.995 289.006C130.995 289.992 131.001 290.026 131.001 291.012C131.001 291.999 131.001 292.019 130.004 292.019L129.994 292.991L136.03 293.048L140.273 288.108L144.897 287.158C149.478 286.799 159.388 286.081 162.377 286.081C166.114 286.081 168.489 285.48 165.037 288.931C161.585 292.383 147.113 293.491 143.693 294.758C140.273 296.025 138.627 298.115 136.347 298.115C134.067 298.115 126.276 297.988 125.136 296.848C123.996 295.708 126.72 294.948 126.086 293.998C125.453 293.048 119.12 294.758 119.12 299.951C127.86 300.078 131.913 299.381 131.913 301.978C131.913 304.575 132.673 306.158 137.803 306.158C142.933 306.158 144.96 309.135 147.493 309.135C150.027 309.135 155.98 306.158 157.437 306.158C158.894 306.158 158.83 309.135 161.617 309.135C164.404 309.135 168.14 301.915 170.99 301.915C173.84 301.915 171.75 305.018 174.347 305.018C176.944 305.018 185.05 299.001 185.05 293.491C185.05 287.981 190.364 286.153 205.001 286.153C219.638 286.153 233.964 287.191 250.884 287.191C264.421 287.191 268.053 284.738 268.177 283.511ZM204.043 280.023H198.058C189.726 280.023 186.628 282.018 185.501 282.018C184.093 282.018 184.034 282.018 184.034 280.492C184.034 278.967 188.611 276.033 189.55 274.566C190.489 273.099 190.958 269.05 192.601 269.05C194.244 269.05 196.767 271.984 198.469 273.04C200.17 274.097 206.156 276.444 206.156 278.028C206.156 279.612 205.041 280.023 204.043 280.023ZM185.999 266.01V261.973C185.999 261.647 186.207 260.996 187.04 260.996C188.081 260.996 189.994 262.356 189.994 265.437C189.994 268.518 187.996 268.029 187.55 268.029C187.104 268.029 185.999 266.988 185.999 266.01ZM190.997 227.973C190.997 227.15 192.608 223.974 196.005 223.974C196.399 223.974 196.548 224.013 197.014 224.013C197.596 224.013 199.033 225.022 199.033 227.021C199.033 229.021 198.975 229.021 198.004 229.021C197.034 229.021 196.024 226.983 194.995 226.983C193.967 226.983 192.977 229.04 192.006 229.04C191.035 229.04 190.997 229.001 190.997 227.973Z" fill="#00703C"/>
<path d="M641.084 182.313C642.742 181.26 633.961 167.953 634.114 161.308C634.305 153.001 646.049 133.953 661.469 133.953C676.888 133.953 668.677 143.071 667.436 143.071C666.195 143.071 666.672 141.066 663.33 141.066C659.989 141.066 659.893 144.408 659.893 145.554C659.893 146.699 661.612 148.227 664.763 148.227C667.913 148.227 676.125 147.177 676.125 136.865C676.125 126.553 664.285 123.211 660.37 123.211C643.375 123.211 632.014 148.895 632.014 153.097C630.677 142.053 623 119.965 602.988 119.965C600.735 119.805 596.229 121.574 596.229 129.929C596.229 140.373 604.949 144.023 607.079 144.023C609.208 144.023 611.337 142.807 611.337 139.461C611.337 136.114 609.411 135.202 608.6 135.202C607.788 135.202 608.093 136.621 607.18 136.621C606.267 136.621 604.037 136.419 604.037 132.768C604.037 130.052 607.687 130.233 607.687 130.233C616.258 129.799 625.939 145.443 630.299 160.754C634.659 176.066 640.312 182.803 641.084 182.313Z" fill="#00703C"/>
<path d="M432.56 174.401C438.479 170.63 437.864 150.945 448.675 132.805C456.605 119.5 460.373 118.826 461.68 119.044C462.986 119.262 465.652 119.95 463.484 123.223C462.119 125.284 461.96 126.925 463.267 128.232C464.573 129.538 469.364 131.934 473.067 128.45C476.769 124.965 475.225 119.151 473.502 116.254C471.347 112.629 458.04 110.809 453.249 115.601C448.458 120.392 445.191 133.676 443.449 133.676C440.4 133.676 437.337 123.438 433.649 118.867C430.456 114.911 420.146 110.809 416.226 111.027C412.306 111.245 408.604 115.601 408.822 119.085C409.04 122.57 410.346 124.312 413.178 124.53C416.009 124.747 417.751 122.787 418.404 121.481C418.622 120.464 419.275 118.388 420.146 118.214C421.235 117.996 427.369 119.944 431.471 131.934C439.964 156.761 434.52 163.73 432.56 174.401Z" fill="#00703C"/>
<path fill-rule="evenodd" clip-rule="evenodd" d="M548.29 68.9563C548.779 68.6304 546.737 63.2092 542.044 63.3348C537.35 63.4605 534.049 65.75 533.174 66.5828C533.174 66.5828 526.258 75.6727 524.18 77.7007C522.102 79.7288 516.448 82.4738 511.688 85.8206C507.442 88.8063 501.07 93.8155 501.07 93.8155C501.07 93.8155 504.148 98.2544 502.694 99.9366C502.694 99.9366 505.845 100.278 507.815 99.9366C508.559 98.5146 512.513 96.1484 513.687 97.5632C514.86 98.9779 510.064 102.935 510.064 102.935C510.064 102.935 506.428 106.345 503.568 106.308C500.708 106.27 499.565 101.699 498.571 102.06C497.577 102.421 497.277 107.923 496.448 111.679L502.569 117.051C502.569 117.051 506.173 113.525 507.94 114.927C509.508 116.171 508.453 117.541 507.688 119.39C506.255 122.854 501.271 122.798 499.004 122.481C496.408 122.118 495.04 117.805 494.199 118.3C493.358 118.795 496.96 128.218 501.944 131.542C504.424 133.195 506.914 132.226 509.065 134.29C511.016 136.164 509.935 138.865 512.063 140.536C514.11 142.144 516.139 142.996 518.559 142.035C519.847 141.523 520.035 140.34 521.307 139.786C522.528 139.255 524.68 139.287 524.68 139.287L523.186 140.968C523.672 141.922 522.739 142.739 524.43 143.409C526.12 144.079 530.731 137.168 531.123 136.902C532.72 135.819 534.255 133.711 535.686 135.006C536.347 135.605 535.651 136.661 536.583 137.107C537.514 137.554 543.524 130.921 545.571 125.598C546.981 121.933 547.52 119.595 547.224 115.679C547.175 115.031 547.034 114.026 547.034 114.026C547.034 114.026 545.266 114.196 544.461 113.434C542.398 111.479 542.216 110.469 539.336 108.647C538.349 108.023 538.362 106.318 538.831 105.887C539.621 105.163 541.919 106.119 543.791 106.714C545.105 107.131 547.034 108.113 547.034 108.113C547.034 108.113 547.081 103.081 546.726 99.8856C546.498 97.8281 545.893 94.6505 545.893 94.6505C545.893 94.6505 542.094 95.1016 539.944 94.7695C537.795 94.4374 534.998 94.2648 535.185 92.1519C535.379 89.9629 540.658 90.8432 540.658 90.8432C540.658 90.8432 544.535 92.0358 544.942 91.676C545.348 91.3163 540.658 85.3701 540.658 85.3701C540.658 85.3701 538.419 82.2372 536.256 81.4437C534.509 80.8027 532.513 81.1399 531.497 81.2058C530.48 81.2716 526.49 81.9739 528.403 78.2313C530.317 74.4886 534.366 67.6108 540.301 67.0471C546.236 66.4835 547.8 69.2822 548.29 68.9563ZM534.114 104.883C533.792 107.591 534.142 109.65 532.39 111.739C531.246 113.102 530.39 113.839 528.641 114.163C526.358 114.586 523.82 114.331 523.049 112.141C522.771 111.35 522.389 110.638 522.93 109.999C523.377 109.472 524.118 109.738 524.638 109.537C526.502 108.817 526.798 108.513 528.196 107.334C529.539 106.202 529.88 105.376 531.259 104.288C532.06 103.656 532.643 102.457 533.519 102.979C534.188 103.378 534.211 104.073 534.114 104.883ZM521.146 92.2709C521.079 94.9973 523.3 97.1249 526.024 97.2681C528.142 97.3795 529.028 95.8426 530.783 94.6505C531.798 93.9611 533.282 92.7468 533.282 92.7468L533.044 91.2001C533.177 90.5433 533.98 90.4423 533.995 89.7723C534.012 89.0378 533.58 88.558 532.925 88.2256C531.706 87.6072 531.207 89.4915 530.069 90.2483C528.974 90.9765 528.526 91.9533 527.214 92.033C525.803 92.1186 525.104 91.2511 524.001 90.3672C523.386 89.874 523.345 89.1019 522.573 88.9395C521.188 88.6479 521.18 90.8559 521.146 92.2709ZM526.024 122.492C526.229 123.32 525.598 123.837 524.953 124.396C524.482 124.803 524.098 124.865 523.525 125.109C522.24 125.659 521.468 125.951 520.075 126.061C518.913 126.153 517.177 125.829 517.177 125.829C517.177 125.829 516.529 125.44 516.148 124.633C515.15 122.519 513.72 123.711 513.769 121.897C513.782 121.395 513.88 121.034 514.195 120.643C514.566 120.182 514.963 119.721 515.553 119.755C516.112 119.788 516.471 120.225 516.788 120.686C517.141 121.2 517.024 121.662 517.219 122.254C517.353 122.661 517.12 123.061 517.457 123.325C517.825 123.613 518.191 123.308 518.647 123.206C519.338 123.051 519.653 122.748 520.313 122.492C521.806 121.911 523.033 120.395 524.567 120.859C525.368 121.101 525.822 121.679 526.024 122.492ZM529.008 128.898C529.751 129.328 530.937 129.952 530.937 129.952C530.937 129.952 531.786 130.211 532.328 130.132C532.646 130.085 532.831 130.04 533.113 129.885C533.564 129.638 533.497 128.879 534.01 128.921C534.489 128.959 534.555 129.457 534.773 129.885C535.003 130.338 535.166 130.636 535.109 131.141C535.038 131.781 534.634 132.043 534.189 132.509C533.373 133.366 532.591 133.441 531.52 133.945C530.275 134.531 529.622 135.232 528.246 135.246C526.319 135.265 525.421 134.059 523.962 132.801C522.414 131.467 519.924 130.508 520.777 128.651C521.149 127.84 521.773 127.675 522.459 127.104C523.093 126.575 523.317 125.788 524.141 125.825C524.753 125.853 525.487 126.633 525.487 126.633C525.487 126.633 527.593 128.079 529.008 128.898ZM534.896 122.019C535.306 121.533 535.892 121.932 536.525 121.998C537.673 122.117 538.442 122.186 539.334 122.92C540.087 123.539 539.745 124.758 540.684 125.02C541.136 125.147 541.419 125.014 541.885 124.956C542.359 124.897 542.71 124.424 543.085 124.72C543.39 124.96 543.27 125.3 543.321 125.685C543.397 126.258 543.429 126.606 543.278 127.164C543.081 127.895 542.69 128.194 542.228 128.793C541.815 129.328 541.722 129.9 541.07 130.08C540.723 130.175 540.494 130.159 540.148 130.058C539.242 129.795 539.592 128.623 538.883 128C537.741 126.996 535.58 128.561 535.089 127.121C534.961 126.747 535.014 126.508 534.982 126.114C534.898 125.079 534.965 124.493 534.939 123.455C534.925 122.894 534.534 122.448 534.896 122.019Z" fill="#00703C"/>
<path d="M67.5 261.5C62.3 264.7 21 287.5 1 298.5C7.82428 300.274 32.7851 295.86 78.034 264.019C153.216 232.828 149.158 230.941 205.838 184.866C303.255 148.006 347.931 103.933 358.092 86.5036L363.449 94.7826C371.079 105.984 399 103.386 405.98 95.2696C412.736 87.4147 415.558 90.7243 422.863 95.1073C428.707 91.6983 430.006 87.64 451.109 87.153C525.132 47.7062 527.892 33.0963 530.489 32.6093C533.087 32.1223 534.385 34.5573 538.444 43.8102C547.372 38.7779 558.735 43.3232 558.898 48.5179C559.06 53.7125 576.429 66.0498 587.63 74.3287C598.831 82.6077 626.134 100.06 627.69 101.823C628.624 100.267 630.595 97.9846 634.227 95.9095C637.858 93.8345 647 82 650.5 81C654 80 668.5 90 671 90C673.5 90 675 80 678.5 80C682 80 676.5 80 690.5 85C704.5 90 724 106 726.5 105.5C729 105 726 99.5 728.5 99.5C731 99.5 737.5 109 739.5 110.5C741.5 112 752.5 122.5 771 132.5C789.5 142.5 807.5 152 830 161.5C852.5 171 872 183 882 186.5C892 190 904.5 195.5 922.5 203.5C936.9 209.9 1000.86 249.641 1001.5 249C1002.14 248.359 992.785 234.066 993.5 233.5C994.215 232.934 1022.21 258.291 1052 274.5C1096.98 298.978 1130.5 302.5 1160 309C1128 291 1127 291.5 1115.5 287.5C1104 283.5 1094.5 273.5 1080 270C1065.5 266.5 1054.5 260.5 1032.5 246.5C1014.9 235.3 978.051 203.352 977.5 204C976.949 204.648 984.7 222.6 983.5 223C982 223.5 966.5 205.5 939 195C911.5 184.5 855 164.5 847 161.5C839 158.5 841.5 158 826.5 150.5C811.5 143 798.5 139 772.5 125C746.5 111 740 90 738 90C736 90 736 93 734.5 93C733 93 733 91.5 731.5 90C730 88.5 728.5 85 726.5 85C724.5 85 723 82.5 722.5 82C722 81.5 718 75 714.5 75C711 75 713 80 710 80C707 80 705.5 77 700 75.5C687 72.5 678.5 73 674 70C669.5 67 668 66 666.5 73C665 80 656.5 76.5 652 75C647.5 73.5 648.5 68 642.5 68C636.5 68 632.5 82 625 82C617.5 82 612 81 586.5 60C561 39 547 10 545.5 10C544 10 543 15 540.5 15C538 15 535 9 533.5 7C532 5 529 1 525 1C521 1 506.5 30.5 480 49.5L479.63 49.7654C453.416 68.5606 444.435 75 430.5 75C416.5 75 419.347 72.7228 414.5 68C398.817 72.9993 400.827 81.5489 390 82C380.06 82.4141 365.181 66.9233 364 67C362.819 67.0767 362.593 70.0283 360 69.5C357.407 68.9717 352 56.5 352 56.5C338 94 311 124.5 268 141C210.721 162.979 182 182.5 176 187C176.8 185 177.333 178.833 177.5 176C168.833 184.833 149.4 204.2 141 211C132.6 217.8 106.833 232.833 95 239.5C88 245.5 72.7 258.3 67.5 261.5Z" fill="#00703C" stroke="black" stroke-width="0.1"/>
<path fill-rule="evenodd" clip-rule="evenodd" d="M842.083 286.408C849.35 284.27 866.024 279.012 874.574 275.079C885.263 270.162 888.033 267.893 889.049 266.947C890.066 266.001 891.047 263.933 887.577 263.092C884.107 262.25 881.934 260.393 881.934 258.43C881.934 256.467 885.159 255.136 887.472 253.033C889.785 250.93 889.89 250.649 890.066 250.825C890.241 251 888.664 255.276 888.033 255.801C887.402 256.327 885.019 256.958 885.019 258.43C885.019 259.902 886.631 260.288 888.243 261.374C889.855 262.461 890.066 264.003 891.993 264.003C893.921 264.003 897.04 259.832 897.04 255.942C897.04 252.051 898.272 246.44 908.164 235.423C916.338 225.945 916.042 225.412 916.101 224.405C916.161 223.398 921.136 215.875 921.136 222.865C921.136 224.997 923.032 226.656 923.032 230.861C923.032 235.067 920.07 234.001 920.07 235.956C920.07 237.91 921.018 237.851 921.018 239.924C921.018 241.997 914.946 245.64 917.168 247.862C919.389 250.083 923.624 245.255 924.039 245.907C924.453 246.558 923.506 247.625 922.913 247.98C922.321 248.336 917.701 249.639 915.391 251.949C913.08 254.259 912.547 257.161 910.652 257.161C908.756 257.161 907.986 258.642 907.986 261.189C907.986 263.736 908.045 263.796 908.519 263.796C908.993 263.796 914.569 261.829 920.613 260.862C926.656 259.895 933.304 260.862 941.039 258.505C948.775 256.148 958.505 250.467 958.928 250.105C959.351 249.742 960.439 248.594 958.988 247.506C957.538 246.418 958.263 245.935 958.444 245.753C958.626 245.572 960.076 246.297 960.801 247.385C961.526 248.473 961.949 249.017 962.493 249.017C963.037 249.017 968.899 244.061 969.625 244.061C970.35 244.061 970.108 245.089 970.108 246.055C970.108 247.022 967.147 251.736 967.147 253.972C967.147 256.208 965.999 256.208 965.999 258.082C965.999 259.955 964.427 262.07 960.499 262.07C956.571 262.07 955.906 264.488 956.994 265.576C958.082 266.663 958.626 268.114 954.214 268.114C949.802 268.114 948.352 273.13 943.819 273.13C939.287 273.13 935.056 269.081 931.068 269.081C929.073 269.081 929.073 268.053 928.59 268.053C928.106 268.053 927.925 269.081 927.019 269.081C926.112 269.081 925.629 269.625 927.079 270.712C928.53 271.8 932.226 274.88 933.279 275.766C934.331 276.652 938.708 276.874 944.525 282.691C950.341 288.508 954.053 288.84 954.053 289.449C954.053 290.059 953.998 290.059 953.111 290.059C952.225 290.059 937.323 290.003 936.049 290.003C934.775 290.003 930.232 293.992 928.625 293.992C927.019 293.992 915.773 288.009 913.391 288.009C911.009 288.009 909.402 291.942 907.02 291.942C904.638 291.942 901.314 282.968 897.824 282.968C896.827 282.968 897.104 284.076 895.553 284.076C894.001 284.076 894.666 279.035 892.561 279.035C890.456 279.035 890.844 281.195 872.562 283.854C857.937 285.982 846.149 286.443 842.083 286.408ZM935.995 283.99C932.91 283.99 928.813 282.169 921.631 278.831C920.519 278.056 918.02 276.383 916.928 275.898C915.562 275.291 910.858 274.684 910.858 272.964C910.858 271.244 914.146 270.081 918.546 270.081C922.946 270.081 923.907 273.824 926.032 275.341C928.156 276.859 935.085 279.033 937.715 280.753C940.345 282.473 939.081 283.99 935.995 283.99Z" fill="#00703C"/>
<path fill-rule="evenodd" clip-rule="evenodd" d="M356.182 229.476C399.303 203.016 410.483 165.958 402.263 146.03C394.043 126.103 352.694 126.601 280.956 172.932C209.218 219.263 208.969 243.425 208.969 249.652C208.969 255.88 211.953 317.976 356.182 229.476ZM229.144 254.634C245.585 283.529 408.74 195.101 380.841 160.229C355.434 126.601 209.218 218.018 229.144 254.634Z" fill="#00703C"/>
<path d="M334.383 280.165C343.475 278.011 364.099 272.018 373.86 265.271C386.062 256.837 423.72 219.793 435.349 205.984C446.978 192.174 458.244 179.092 465.512 165.646C471.326 154.889 476.172 144.447 477.867 140.571C479.786 148.453 485.237 164.218 491.688 164.218C499.752 164.218 509.746 187.047 515.766 187.047C521.785 187.047 520.309 183.072 525.533 183.072C530.758 183.072 528.486 186.252 532.461 186.252C536.436 186.252 553.473 163.083 555.176 160.47C556.88 157.858 565.057 145.706 566.079 140.708C566.897 136.711 571.342 125.414 573.462 120.265C580.056 131.891 595.256 157.669 603.306 167.774C613.368 180.405 641.628 214.446 644.625 218.728C647.622 223.009 656.4 238.21 665.82 247.416C675.24 256.622 686.801 264.115 695.15 268.183C701.83 271.437 716.631 277.817 723.196 280.6C719.842 280.957 709.109 281.67 693.01 281.67C672.885 281.67 668.603 277.388 661.11 269.467C653.617 261.546 634.349 233.714 630.281 227.291C626.213 220.869 605.446 199.459 603.734 197.104C602.021 194.749 601.486 193.786 599.452 195.82C597.418 197.854 596.026 198.175 593.886 195.178C591.745 192.18 575.046 168.844 572.691 165.205C570.336 161.565 569.693 160.923 567.766 164.349C565.84 167.774 549.997 195.82 546.357 199.031C542.718 202.243 540.363 205.24 530.515 205.24C520.667 205.24 520.024 208.879 517.883 208.879C515.742 208.879 509.748 205.026 498.615 198.389C487.482 191.752 484.699 198.389 483.201 198.175C481.702 197.961 473.781 184.687 471.426 184.687C469.071 184.687 455.155 200.744 434.174 226.007C413.193 251.269 406.342 272.25 404.843 273.749C403.345 275.248 384.291 284.882 360.955 284.882C342.286 284.882 335.462 281.737 334.383 280.165Z" fill="#00703C"/>
<path fill-rule="evenodd" clip-rule="evenodd" d="M653.287 170.473C665.038 181.002 690.823 203.771 699.952 210.618C711.364 219.176 719.719 222.641 731.539 232.83C743.358 243.019 758.03 260.136 766.589 266.046C775.148 271.956 784.114 278.069 791.858 278.069C799.601 278.069 831.595 272.975 845.248 268.695C858.901 264.416 864.2 262.582 866.849 261.359C869.498 260.136 879.687 258.506 879.687 240.777C879.687 223.048 855.437 203.485 830.984 193.296C806.53 183.107 788.801 181.477 772.295 183.922C755.788 186.368 755.788 188.813 753.139 189.017C750.49 189.221 749.675 186.979 751.917 184.738C754.158 182.496 760.679 175.364 753.343 170.065C746.007 164.767 736.837 159.265 699.137 162.322C668.978 164.767 654.577 168.775 653.287 170.473ZM710.735 202.441C709.957 201.885 708.957 201.33 698.399 193.328C693.62 189.809 683.685 182.526 682.174 181.548C680.285 180.326 681.285 178.77 682.396 178.103C683.491 177.446 685.234 176.789 691.773 174.324L692.065 174.214C698.844 171.658 708.845 169.991 718.069 169.991C727.293 169.991 733.739 171.435 737.295 172.324C740.851 173.213 748.63 173.88 746.074 181.437C743.518 188.994 720.292 200.441 717.847 202.107C715.402 203.774 711.513 202.997 710.735 202.441ZM844.515 253.33C833.793 259.734 805.351 261.223 796.714 261.372C778.993 261.372 778.993 265.393 762.166 246.48C746.413 228.776 726.128 213.421 722.406 210.741C718.683 208.061 724.49 205.976 728.958 203.295C733.425 200.615 745.04 198.828 750.848 198.381C756.656 197.934 765.591 197.785 772.887 197.785C780.184 197.785 782.865 195.998 790.31 196.296C809.223 196.445 829.475 206.422 844.217 216.846C858.96 227.27 858.066 234.865 858.066 239.481C858.066 244.098 855.237 246.927 844.515 253.33Z" fill="#00703C"/>
</svg>
